<svg width="227" height="72" viewBox="0 0 227 72" fill="none" xmlns="http://www.w3.org/2000/svg">
<g clip-path="url(#clip0_2015_4)">
<path d="M0 61.1395C0 55.1999 5.16729 50.5816 11.0696 51.2459L187.039 71.052C209.597 73.591 228.703 54.5844 226.282 32.0133C223.76 8.50257 198 49 177.511 2.98633L13.7433 70.3471C7.19098 73.0422 0 68.2245 0 61.1395Z" fill="url(#paint0_linear_2015_4)"/>
<path d="M190.843 14.3651L193.098 18.0958L197.343 17.104L194.491 20.4015L196.746 24.1321L192.729 22.4394L189.878 25.737L190.246 21.3933L186.229 19.7006L190.474 18.7088L190.843 14.3651Z" fill="#D9D9D9"/>
<path d="M199.639 2.97473L203.988 3.26743L205.61 -0.778659L206.676 3.44833L211.026 3.74103L207.335 6.06076L208.4 10.2877L205.054 7.49442L201.363 9.81415L202.985 5.76806L199.639 2.97473Z" fill="#D9D9D9"/>
<path d="M217.377 5.91751L220.521 8.93748L224.364 6.88087L222.464 10.8039L225.607 13.8239L221.289 13.2285L219.388 17.1516L218.62 12.8605L214.302 12.2652L218.145 10.2085L217.377 5.91751Z" fill="#D9D9D9"/>
<path d="M212.656 30.1814L210.487 33.9623L213.412 37.1942L209.146 36.299L206.976 40.08L206.509 35.7458L202.243 34.8506L206.22 33.0671L205.753 28.733L208.679 31.9649L212.656 30.1814Z" fill="#D9D9D9"/>
<path d="M194.843 43.3651L197.098 47.0958L201.343 46.104L198.491 49.4015L200.746 53.1321L196.729 51.4394L193.878 54.737L194.246 50.3933L190.229 48.7006L194.474 47.7088L194.843 43.3651Z" fill="#D9D9D9"/>
<path d="M215.843 44.3651L218.098 48.0958L222.343 47.1039L219.491 50.4014L221.746 54.1321L217.729 52.4394L214.878 55.7369L215.246 51.3933L211.229 49.7006L215.474 48.7087L215.843 44.3651Z" fill="#D9D9D9"/>
<path d="M187.213 -1.01571L188.839 1.67416L191.899 0.959034L189.843 3.33659L191.469 6.02645L188.573 4.80599L186.517 7.18355L186.783 4.05171L183.886 2.83125L186.947 2.11612L187.213 -1.01571Z" fill="#D9D9D9"/>
<path d="M206.213 13.9843L207.839 16.6742L210.899 15.959L208.843 18.3366L210.469 21.0265L207.573 19.806L205.517 22.1835L205.783 19.0517L202.886 17.8312L205.947 17.1161L206.213 13.9843Z" fill="#D9D9D9"/>
<path d="M198.213 58.9843L199.839 61.6742L202.899 60.959L200.843 63.3366L202.469 66.0265L199.573 64.806L197.517 67.1835L197.783 64.0517L194.886 62.8312L197.947 62.1161L198.213 58.9843Z" fill="#D9D9D9"/>
<path d="M168.256 16.7426L169.882 19.4325L172.943 18.7174L170.887 21.0949L172.513 23.7848L169.616 22.5643L167.561 24.9419L167.826 21.81L164.93 20.5896L167.99 19.8745L168.256 16.7426Z" fill="#D9D9D9"/>
<path d="M185.256 31.7426L186.882 34.4325L189.943 33.7174L187.887 36.0949L189.513 38.7848L186.616 37.5643L184.561 39.9419L184.826 36.81L181.93 35.5896L184.99 34.8745L185.256 31.7426Z" fill="#D9D9D9"/>
<path d="M220.213 20.9843L221.839 23.6742L224.899 22.959L222.843 25.3366L224.469 28.0265L221.573 26.806L219.517 29.1835L219.783 26.0517L216.886 24.8312L219.947 24.1161L220.213 20.9843Z" fill="#D9D9D9"/>
</g>
<defs>
<linearGradient id="paint0_linear_2015_4" x1="851.318" y1="47.553" x2="756.751" y2="339.402" gradientUnits="userSpaceOnUse">
<stop stop-color="#00EAFF" stop-opacity="0.77"/>
<stop offset="1" stop-color="#B415FF"/>
</linearGradient>
<clipPath id="clip0_2015_4">
<rect width="227" height="72" fill="white"/>
</clipPath>
</defs>
</svg>
